<svg width="400" height="120" xmlns="http://www.w3.org/2000/svg">
 <style>.st0{fill:#222222;width:16px;height:16px} .st1{fill:none;stroke:#FFFFFF;stroke-width:1.5;stroke-linecap:round;} .st2{fill:none;stroke:#FFFFFF;stroke-width:2;stroke-linecap:round;} .st3{fill:none;stroke:#FFFFFF;} .st4{fill:#231F20;} .st5{opacity:0.75;fill:none;stroke:#FFFFFF;stroke-width:5;enable-background:new;} .st6{fill:none;stroke:#FFFFFF;stroke-width:5;} .st7{opacity:0.4;fill:#222222;enable-background:new;} .st8{opacity:0.6;fill:#222222;enable-background:new;} .st9{opacity:0.8;fill:#222222;enable-background:new;} .st10{opacity:0.9;fill:#222222;enable-background:new;} .st11{opacity:0.3;fill:#222222;enable-background:new;} .st12{opacity:0.5;fill:#222222;enable-background:new;} .st13{opacity:0.7;fill:#222222;enable-background:new;}</style>
 <defs>
  <linearGradient y2="0" x2="1" y1="0" x1="0" id="svg_29">
   <stop offset="0" stop-color="#none"/>
   <stop offset="1" stop-color="#NaNNaNNaN"/>
  </linearGradient>
 </defs>
 <g>
  <title>Layer 1</title>
  <path id="svg_1" d="m16.5,8.5c0.3,0.1 0.4,0.5 0.2,0.8c-0.1,0.1 -0.1,0.2 -0.2,0.2l-11.4,7c-0.5,0.3 -0.8,0.1 -0.8,-0.5l0,-14c0,-0.5 0.4,-0.8 0.8,-0.5l11.4,7z" class="st0"/>
  <path id="svg_2" d="m24,1l2.2,0c0.6,0 1,0.4 1,1l0,14c0,0.6 -0.4,1 -1,1l-2.2,0c-0.6,0 -1,-0.4 -1,-1l0,-14c0,-0.5 0.4,-1 1,-1zm9.8,0l2.2,0c0.6,0 1,0.4 1,1l0,14c0,0.6 -0.4,1 -1,1l-2.2,0c-0.6,0 -1,-0.4 -1,-1l0,-14c0,-0.5 0.4,-1 1,-1z" class="st0"/>
  <path id="svg_3" d="m81,1.4c0,-0.6 0.4,-1 1,-1l5.4,0c0.6,0 0.7,0.3 0.3,0.7l-6,6c-0.4,0.4 -0.7,0.3 -0.7,-0.3l0,-5.4zm0,15.8c0,0.6 0.4,1 1,1l5.4,0c0.6,0 0.7,-0.3 0.3,-0.7l-6,-6c-0.4,-0.4 -0.7,-0.3 -0.7,0.3l0,5.4zm17.8,-15.8c0,-0.6 -0.4,-1 -1,-1l-5.4,0c-0.6,0 -0.7,0.3 -0.3,0.7l6,6c0.4,0.4 0.7,0.3 0.7,-0.3l0,-5.4zm0,15.8c0,0.6 -0.4,1 -1,1l-5.4,0c-0.6,0 -0.7,-0.3 -0.3,-0.7l6,-6c0.4,-0.4 0.7,-0.3 0.7,0.3l0,5.4z" class="st0"/>
  <path id="svg_4" d="m112.7,5c0,0.6 0.4,1 1,1l4.1,0c0.6,0 0.7,-0.3 0.3,-0.7l-4.7,-4.7c-0.4,-0.4 -0.7,-0.3 -0.7,0.3l0,4.1zm-7.1,1c0.6,0 1,-0.4 1,-1l0,-4.1c0,-0.6 -0.3,-0.7 -0.7,-0.3l-4.7,4.7c-0.4,0.4 -0.3,0.7 0.3,0.7l4.1,0zm1,7.1c0,-0.6 -0.4,-1 -1,-1l-4.1,0c-0.6,0 -0.7,0.3 -0.3,0.7l4.7,4.7c0.4,0.4 0.7,0.3 0.7,-0.3l0,-4.1zm7.1,-1c-0.6,0 -1,0.4 -1,1l0,4.1c0,0.5 0.3,0.7 0.7,0.3l4.7,-4.7c0.4,-0.4 0.3,-0.7 -0.3,-0.7l-4.1,0z" class="st0"/>
  <path id="svg_5" d="m67,5.8c-0.5,0.4 -1.2,0.6 -1.8,0.6l-3.2,0c-0.6,0 -1,0.4 -1,1l0,5.7c0,0.6 0.4,1 1,1l4.2,0c0.3,0.2 0.5,0.4 0.8,0.6l3.5,2.6c0.4,0.3 0.8,0.1 0.8,-0.4l0,-13.4c0,-0.5 -0.4,-0.7 -0.8,-0.4l-3.5,2.7z" class="st0"/>
  <path id="svg_6" d="m32.34156,28.21428s3.9,-0.8 3.9,7.7s-3.9,7.8 -3.9,7.8" class="st1"/>
  <path id="svg_8" d="m47,5.8c-0.5,0.4 -1.2,0.6 -1.8,0.6l-3.2,0c-0.6,0 -1,0.4 -1,1l0,5.7c0,0.6 0.4,1 1,1l4.2,0c0.3,0.2 0.5,0.4 0.8,0.6l3.5,2.6c0.4,0.3 0.8,0.1 0.8,-0.4l0,-13.4c0,-0.5 -0.4,-0.7 -0.8,-0.4l-3.5,2.7z" class="st0"/>
  <path id="svg_10" d="m128.7,8.6c-6.2,-4.2 -6.5,7.8 0,3.9m6.5,-3.9c-6.2,-4.2 -6.5,7.8 0,3.9" class="st3"/>
  <path id="svg_11" d="m122.2,3.4l15.7,0l0,13.1l-15.7,0l0,-13.1zm-1.4,-1.4l0,15.7l18.3,0l0,-15.7l-18.3,0z" class="st0"/>
  <path id="svg_12" d="m143.2,3l14,0c1.1,0 2,0.9 2,2l0,10c0,1.1 -0.9,2 -2,2l-14,0c-1.1,0 -2,-0.9 -2,-2l0,-10c0,-1.1 0.9,-2 2,-2z" class="st0"/>
  <path id="svg_13" d="m146.4,13.8c-0.8,0 -1.6,-0.4 -2.1,-1c-1.1,-1.4 -1,-3.4 0.1,-4.8c0.5,-0.6 2,-1.7 4.6,0.2l-0.6,0.8c-1.4,-1 -2.6,-1.1 -3.3,-0.3c-0.8,1 -0.8,2.4 -0.1,3.5c0.7,0.9 1.9,0.8 3.4,-0.1l0.5,0.9c-0.7,0.5 -1.6,0.7 -2.5,0.8zm7.5,0c-0.8,0 -1.6,-0.4 -2.1,-1c-1.1,-1.4 -1,-3.4 0.1,-4.8c0.5,-0.6 2,-1.7 4.6,0.2l-0.5,0.8c-1.4,-1 -2.6,-1.1 -3.3,-0.3c-0.8,1 -0.8,2.4 -0.1,3.5c0.7,0.9 1.9,0.8 3.4,-0.1l0.5,0.9c-0.8,0.5 -1.7,0.7 -2.6,0.8z" class="st4"/>
  <path id="svg_14" d="m60.3,77c0.6,0.2 0.8,0.8 0.6,1.4c-0.1,0.3 -0.3,0.5 -0.6,0.6l-30.3,17.5c-1,0.6 -1.7,0.1 -1.7,-1l0,-35c0,-1.1 0.8,-1.5 1.7,-1l30.3,17.5z" class="st0"/>
  <path id="svg_15" d="m2.5,79c0,-20.7 16.8,-37.5 37.5,-37.5s37.5,16.8 37.5,37.5s-16.8,37.5 -37.5,37.5s-37.5,-16.8 -37.5,-37.5z" class="st5"/>
  <path id="svg_16" d="m140.3,77c0.6,0.2 0.8,0.8 0.6,1.4c-0.1,0.3 -0.3,0.5 -0.6,0.6l-30.3,17.5c-1,0.6 -1.7,0.1 -1.7,-1l0,-35c0,-1.1 0.8,-1.5 1.7,-1l30.3,17.5z" class="st0"/>
  <path id="svg_17" d="m82.5,79c0,-20.7 16.8,-37.5 37.5,-37.5s37.5,16.8 37.5,37.5s-16.8,37.5 -37.5,37.5s-37.5,-16.8 -37.5,-37.5z" class="st6"/>
  <circle id="svg_18" r="8.1" cy="47.1" cx="201.9" class="st0"/>
  <circle id="svg_19" r="5" cy="79" cx="233.9" class="st7"/>
  <circle id="svg_20" r="6" cy="110.9" cx="201.9" class="st8"/>
  <circle id="svg_21" r="7" cy="79" cx="170.1" class="st9"/>
  <circle id="svg_22" r="7.5" cy="56.3" cx="178.2" class="st10"/>
  <circle id="svg_23" r="4.5" cy="56.1" cx="226.3" class="st11"/>
  <circle id="svg_24" r="5.5" cy="102.8" cx="225.8" class="st12"/>
  <circle id="svg_25" r="6.5" cy="102.8" cx="178.2" class="st13"/>
  <path id="svg_26" d="m178,9.4c0,0.4 -0.4,0.7 -0.9,0.7c-0.1,0 -0.2,0 -0.2,-0.1l-4.9,-1.8c-0.5,-0.2 -0.6,-0.6 -0.1,-0.8l6.2,-3.6c0.5,-0.3 0.8,-0.1 0.7,0.5l-0.8,5.1z" class="st0"/>
  <path id="svg_27" d="m169.4,15.9c-1,0 -2,-0.2 -2.9,-0.7c-2,-1 -3.2,-3 -3.2,-5.2c0.1,-3.4 2.9,-6 6.3,-6c2.5,0.1 4.8,1.7 5.6,4.1l0.1,-0.1l2.1,1.1c-0.6,-4.4 -4.7,-7.5 -9.1,-6.9c-3.9,0.6 -6.9,3.9 -7,7.9c0,2.9 1.7,5.6 4.3,7c1.2,0.6 2.5,0.9 3.8,1c2.6,0 5,-1.2 6.6,-3.3l-1.8,-0.9c-1.2,1.2 -3,2 -4.8,2z" class="st0"/>
  <path id="svg_28" d="m183.4,3.2c0.8,0 1.5,0.7 1.5,1.5s-0.7,1.5 -1.5,1.5s-1.5,-0.7 -1.5,-1.5c0,-0.9 0.7,-1.5 1.5,-1.5zm5.1,0l8.5,0c0.9,0 1.5,0.7 1.5,1.5s-0.7,1.5 -1.5,1.5l-8.5,0c-0.9,0 -1.5,-0.7 -1.5,-1.5c-0.1,-0.9 0.6,-1.5 1.5,-1.5zm-5.1,5c0.8,0 1.5,0.7 1.5,1.5s-0.7,1.5 -1.5,1.5s-1.5,-0.7 -1.5,-1.5c0,-0.9 0.7,-1.5 1.5,-1.5zm5.1,0l8.5,0c0.9,0 1.5,0.7 1.5,1.5s-0.7,1.5 -1.5,1.5l-8.5,0c-0.9,0 -1.5,-0.7 -1.5,-1.5c-0.1,-0.9 0.6,-1.5 1.5,-1.5zm-5.1,5c0.8,0 1.5,0.7 1.5,1.5s-0.7,1.5 -1.5,1.5s-1.5,-0.7 -1.5,-1.5c0,-0.9 0.7,-1.5 1.5,-1.5zm5.1,0l8.5,0c0.9,0 1.5,0.7 1.5,1.5s-0.7,1.5 -1.5,1.5l-8.5,0c-0.9,0 -1.5,-0.7 -1.5,-1.5c-0.1,-0.9 0.6,-1.5 1.5,-1.5z" class="st0"/>
  <path stroke="null" id="svg_31" d="m52.0576,8.95143l1.57434,-1.57434l1.6724,1.67239l1.6724,-1.67239l1.57436,1.57434l-1.6724,1.6724l1.6724,1.6724l-1.57436,1.57436l-1.6724,-1.6724l-1.6724,1.6724l-1.57434,-1.57436l1.67239,-1.6724l-1.67239,-1.6724z" fill="url(#svg_29)"/>
  <path transform="rotate(45 77.0156 10.1041)" stroke="null" id="svg_33" d="m72.90564,10.3631c1.02669,0 1.99201,0.40194 2.71717,1.1311c0.72682,0.72949 1.12643,1.70148 1.12643,2.73585l1.58274,0c0,-3.0047 -2.43465,-5.44868 -5.42667,-5.44868l0,1.58174l0.00033,0zm0.002,-2.80456c3.66014,0 6.63715,2.99369 6.63715,6.67318l1.58207,0c0,-4.55174 -3.68716,-8.25525 -8.21956,-8.25525l0,1.58207l0.00033,0zm2.18815,5.56743c0,0.60541 -0.49067,1.09641 -1.09574,1.09641s-1.09574,-0.491 -1.09574,-1.09641c0,-0.60474 0.49067,-1.09574 1.09574,-1.09574s1.09574,0.49067 1.09574,1.09574z" fill="url(#svg_29)"/>
 </g>
</svg>