<svg xmlns="http://www.w3.org/2000/svg" xmlns:xlink="http://www.w3.org/1999/xlink" width="1024" height="622" preserveAspectRatio="xMidYMid meet" viewBox="0 0 1024 622" style="-ms-transform: rotate(360deg); -webkit-transform: rotate(360deg); transform: rotate(360deg);"><path d="M864 576H512V49Q567 0 640 0q80 0 136 56t56 136q0 37-14 71q25-7 46-7q66 0 113 47t47 113t-47 113t-113 47zm-416 0h-64V132q35 7 64 29v415zM256 161q28-22 64-29v444h-64V161zM128 573V259q16-3 32-3q15 0 32 4v316h-32q-16 0-32-3zM64 289v254q-30-22-47-55.5T0 416t17-71.5T64 289z" fill="#222222"/><rect x="0" y="0" width="1024" height="622" fill="rgba(0, 0, 0, 0)" /></svg>